Coordinates
version=1
nRows=9
nColumns=42
inDegrees=yes

Units are S.I. units (second, meters, Newtons, ...)
If the header above contains a line with 'inDegrees', this indicates whether rotational values are in degrees (yes) or radians (no).

endheader
time	pelvis_tilt	pelvis_list	pelvis_rotation	pelvis_tx	pelvis_ty	pelvis_tz	hip_flexion_r	hip_adduction_r	hip_rotation_r	knee_angle_r	knee_adduction_r	knee_angle_r_beta	ankle_angle_r	subtalar_angle_r	mtp_angle_r	hip_flexion_l	hip_adduction_l	hip_rotation_l	knee_angle_l	knee_adduction_l	knee_angle_l_beta	ankle_angle_l	subtalar_angle_l	mtp_angle_l	lumbar_extension	lumbar_bending	lumbar_rotation	arm_flex_r	arm_add_r	arm_rot_r	elbow_flex_r	pro_sup_r	wrist_flex_r	wrist_dev_r	arm_flex_l	arm_add_l	arm_rot_l	elbow_flex_l	pro_sup_l	wrist_flex_l	wrist_dev_l
      0.00000000	      3.91421449	     -2.01543177	     -5.11260614	     -1.38168151	      1.00303913	     -0.23498229	    -17.84226382	      0.94394501	      2.98093211	      5.90283031	     10.36441338	      0.10302382	     13.35768036	      8.62139266	     -9.44960746	     19.85596237	    -12.45413288	    -10.56836914	     15.65250161	     12.19508489	      0.27318769	      1.81869090	     -6.07503730	     -9.44960746	    -18.23477053	     -2.42882100	     10.32806122	     17.98637876	    -16.89089355	     -6.95931329	     35.93200956	     90.00000001	      0.00000000	      0.00000000	    -11.88197818	    -11.65328001	    -15.41206600	     14.42230956	     90.00000001	      0.00000000	      0.00000000
      0.01000000	      3.73549899	     -2.30533294	     -5.51855136	     -1.36853941	      1.00024660	     -0.23468663	    -18.39580766	      1.13760635	      3.33392354	      6.12060493	     10.25081032	      0.10682471	     13.71413907	      8.63884678	     -9.38429852	     19.99304592	    -12.92314691	    -11.40335275	     12.95553711	     12.66216158	      0.22611678	      1.70668536	     -4.36509256	     -9.38429852	    -18.08723124	     -2.30423205	     10.75615734	     18.72302481	    -17.32565062	     -6.16595078	     36.69011340	     90.00000001	      0.00000000	      0.00000000	    -12.54596931	    -11.53817491	    -15.49638869	     14.49338122	     90.00000001	      0.00000000	      0.00000000
      0.02000000	      3.32211147	     -2.58796063	     -5.83047823	     -1.35521835	      0.99714859	     -0.23438837	    -18.67417612	      1.40435796	      3.59673406	      6.43461895	     10.07597766	      0.11230529	     14.03284468	      8.60395338	     -9.35573222	     20.47515510	    -13.40771789	    -12.07595258	     10.70131380	     13.19398174	      0.18677316	      1.40406526	     -2.83906259	     -9.35573222	    -17.68327207	     -2.15628811	     11.04685807	     19.46051471	    -17.60736778	     -5.58480708	     37.18315820	     90.00000001	      0.00000000	      0.00000000	    -13.19443482	    -11.44421802	    -15.64311978	     14.56280243	     90.00000001	      0.00000000	      0.00000000
      0.03000000	      3.26891320	     -2.78686505	     -6.32893752	     -1.34168824	      0.99459110	     -0.23409146	    -19.30769539	      1.44007534	      4.15838093	      6.78430390	      9.96464461	      0.11840844	     14.27458353	      8.51725011	     -9.32194448	     20.42056316	    -13.74959777	    -12.79658724	      8.64870106	     13.56839824	      0.15094831	      1.48497263	     -1.36268978	     -9.32194448	    -17.65730995	     -2.16190160	     11.40908342	     20.20179182	    -17.94319836	     -4.69810552	     37.70039134	     90.00000001	      0.00000000	      0.00000000	    -13.76668088	    -11.27305722	    -15.98041324	     14.58749507	     90.00000001	      0.00000000	      0.00000000
      0.04000000	      3.21269589	     -2.82489821	     -6.76828002	     -1.32775561	      0.99212429	     -0.23377933	    -19.95869815	      1.31664112	      4.61941861	      7.10560836	      9.83589810	      0.12401626	     14.41705949	      8.33243834	     -9.29055833	     20.43013087	    -13.92021278	    -13.53642720	      7.16785902	     13.91695412	      0.12510274	      1.51645434	     -0.10654074	     -9.29055833	    -17.56925530	     -2.34919154	     11.64336981	     20.82623734	    -18.15306132	     -3.86156807	     38.11110488	     90.00000001	      0.00000000	      0.00000000	    -14.30214430	    -11.14720257	    -16.40361527	     14.54745783	     90.00000001	      0.00000000	      0.00000000
      0.05000000	      3.26668274	     -2.73377203	     -7.23645487	     -1.31371519	      0.98992986	     -0.23361012	    -20.67318036	      0.99896856	      5.17229121	      7.47531433	      9.72452649	      0.13046885	     14.46558964	      8.05856841	     -9.25872586	     20.32138656	    -13.89507047	    -14.20932687	      6.13763906	     14.13069561	      0.10712201	      1.67207456	      0.94745762	     -9.25872586	    -17.58897155	     -2.68340902	     11.83533909	     21.40054183	    -18.34643559	     -3.00970353	     38.47241441	     90.00000001	      0.00000000	      0.00000000	    -14.72509886	    -11.00725566	    -16.95768962	     14.44520860	     90.00000001	      0.00000000	      0.00000000
      0.06000000	      3.16726387	     -2.64349234	     -7.41279552	     -1.29957500	      0.98764947	     -0.23354257	    -21.20894263	      0.84237089	      5.45743186	      7.90461437	      9.50873230	      0.13796155	     14.40887351	      7.97198212	     -9.24594330	     20.66199006	    -13.81735287	    -14.43805127	      5.94236405	     14.28574964	      0.10371382	      1.76088871	      1.18881152	     -9.24594330	    -17.44223640	     -2.95933783	     11.78639946	     21.84857577	    -18.32255193	     -2.74571168	     38.80655013	     90.00000001	      0.00000000	      0.00000000	    -15.10614130	    -10.99064379	    -17.11770493	     14.31966462	     90.00000001	      0.00000000	      0.00000000
      0.07000000	      3.61630637	     -2.10918897	     -8.06412277	     -1.28476676	      0.98635411	     -0.23369620	    -22.32897362	     -0.20315123	      6.53857203	      8.12414735	      9.61274526	      0.14179312	     14.01422251	      6.81135037	     -9.11044127	     20.04635470	    -13.19658198	    -15.42455353	      5.80093965	     14.15240158	      0.10124550	      2.09514356	      2.32651620	     -9.11044127	    -17.77721314	     -3.84070159	     12.02416050	     22.16100830	    -18.50143655	     -1.79921989	     39.19702078	     90.00000001	      0.00000000	      0.00000000	    -14.96376213	    -10.70677115	    -19.40842762	     13.54992003	     90.00000001	      0.00000000	      0.00000000
      0.08000000	      3.67812929	     -1.82580618	     -8.39878953	     -1.27013184	      0.98466286	     -0.23379496	    -22.83595707	     -0.71560176	      6.93116754	      8.88240822	      9.49039705	      0.15502727	     13.81182132	      6.57636269	     -9.08286280	     20.10766654	    -12.84745384	    -15.45377539	      6.28391667	     14.09124993	      0.10967504	      2.05074623	      1.94809986	     -9.08286280	    -17.74374164	     -4.36557924	     12.10933365	     22.29490642	    -18.56501064	     -1.32725030	     39.57851326	     90.00000001	      0.00000000	      0.00000000	    -15.17579150	    -10.65354520	    -19.58695185	     13.45375723	     90.00000001	      0.00000000	      0.00000000
